<svg id="Calque_1" data-name="Calque 1" xmlns="http://www.w3.org/2000/svg" viewBox="0 0 410.19 299.36"><defs><style>.cls-1,.cls-2{fill:#1d1d1b;}.cls-2{stroke:#1d1d1b;stroke-miterlimit:10;}</style></defs><path class="cls-1" d="M395.67,46.09A11,11,0,0,1,390,48.41a56.34,56.34,0,0,1-7.52.46q-8.16,0-15.4.28t-10.76.28q-4.63,0-12.43.74T327,52q-9.09,1.11-18.55,2.69T290.83,58q-8.16,1.66-14,3.43c-3.89,1.17-6.46,2.26-7.7,3.24Q268,66.5,265.6,75.31t-4.83,21.34q-2.4,12.52-4.26,27.18a225.71,225.71,0,0,0-1.86,28.39q10.2-2,21-4.54T299,143a136.11,136.11,0,0,0,14.75-3.34q7.88-2.24,15.86-4.46t15.5-3.89a62.92,62.92,0,0,1,13.63-1.67q6.69,0,11.23.46a20.89,20.89,0,0,1,7.42,1.95,8.38,8.38,0,0,1,4.08,4.54,23.64,23.64,0,0,1,1.21,8.45,20.48,20.48,0,0,1-2.32,9.37,36.1,36.1,0,0,1-6,8.44c-1.73,1.85-5,3.59-9.74,5.19s-9.9,3.07-15.4,4.36-10.76,2.42-15.77,3.34-8.63,1.58-10.86,1.95q-13,2.24-25.7,4.92T274,187.85q-10.21,2.6-16.79,4.91t-7.33,3.81a34.6,34.6,0,0,0-2.14,8q-.83,5-1.39,11.22t-.74,13.08q-.19,6.87-.19,13.55,0,10.95-.09,18.37t-.09,15a68.9,68.9,0,0,1-.56,8.9,19.27,19.27,0,0,1-2.5,7.52,13.8,13.8,0,0,1-5.85,5.19q-3.9,1.95-10.39,1.95h-1.95a10.25,10.25,0,0,1-1.95-.18,44.68,44.68,0,0,1-5.19-1.67,36.34,36.34,0,0,1-16.42-12.81A19.61,19.61,0,0,1,197,273a359.08,359.08,0,0,1,2.41-42q2.4-20.51,4.27-37.39c.12-.86.46-3.28,1-7.24s1.26-8.93,2.13-14.93,1.86-12.74,3-20.23,2.23-15.09,3.34-22.82,2.19-15.34,3.25-22.82,2-14.26,2.87-20.32,1.55-11.1,2-15.12.74-6.46.74-7.33a17.08,17.08,0,0,0-.74-4.92q-.74-2.5-1.67-5.1c-.62-1.73-1.17-3.49-1.67-5.29a20.67,20.67,0,0,1-.74-5.47,14.51,14.51,0,0,1,2.32-7.42,33.32,33.32,0,0,1,5.75-7.15,34.79,34.79,0,0,1,7.42-5.38A15.79,15.79,0,0,1,240,19.93a55.91,55.91,0,0,1,13,1.3,43.89,43.89,0,0,0,10.21,1.3,105,105,0,0,0,17-1.67q9.93-1.68,22.55-4.27,10.94-2.23,21.89-4.18T346,8.89q10.49-1.58,20.13-2.51t18-.92A23.52,23.52,0,0,1,391.77,7a47.45,47.45,0,0,1,8.63,4.08,31.31,31.31,0,0,1,7.05,5.66c1.92,2.11,2.87,4.15,2.87,6.13a25.05,25.05,0,0,1-3.06,11.5q-3.06,5.94-11.78,11.88Z" transform="translate(-0.13 0)"/><path class="cls-2" d="M207.09,277.4c-17-14.78-42.77-53.94-90.54-54.89C54.89,219.84,47.76,250.14.89,226.79c0,0,7.49,28.87,45.45,42.06,60.41,18.39,106.1,1.07,142,18.36,0,0,35.41,13.55,35.83,11.41C224.42,297.43,207.09,277.4,207.09,277.4Z" transform="translate(-0.13 0)"/><path class="cls-1" d="M218.08,47.69C214.57,36.81,216,24.22,216,24.22,214.81,1.88,231-3.11,232.63,1.64c4.64,8,9.75,16.65,34.05,22.57,5.49,1.34-28.47,15.63-28.31,15.87h0Z" transform="translate(-0.13 0)"/></svg>